<svg
  xmlns="http://www.w3.org/2000/svg"
  viewBox="0 0 26 23"
  fill="none"
  width="29" height="32" 
>
  <defs>
    <linearGradient id="pn47x3vj" x1="0" y1="0" x2="26" y2="23" gradientUnits="userSpaceOnUse">
      <stop stop-color="#F213A4" />
      <stop offset="0.152" stop-color="#E011A7" />
      <stop offset="0.455" stop-color="#B20DAF" />
      <stop offset="0.879" stop-color="#6806BB" />
      <stop offset="1" stop-color="#5204BF" />
    </linearGradient>
  </defs>
  <path
    fill="url(#pn47x3vj)"
    d="m25.033 17.458-4.087 4.382a.95.95 0 0 1-.692.302H.879a.476.476 0 0 1-.348-.798l4.082-4.382a.95.95 0 0 1 .692-.302H24.68a.473.473 0 0 1 .353.798m-4.087-8.827a.96.96 0 0 0-.692-.302H.879a.475.475 0 0 0-.348.798l4.082 4.385a.96.96 0 0 0 .692.302H24.68a.476.476 0 0 0 .346-.798zM.879 5.483h19.375a.95.95 0 0 0 .692-.302L25.033.798a.475.475 0 0 0-.09-.724A.47.47 0 0 0 24.68 0H5.305a.95.95 0 0 0-.692.302L.531 4.685a.475.475 0 0 0 .348.798"
  />
</svg>
