<svg
  fill="none"
  viewBox="0 0 516 321"
  xmlns="http://www.w3.org/2000/svg"
>
  <title>thirdweb</title>
  <g clip-path="url(#a)">
    <path
      fill="url(#b)"
      d="M1.405 27.001C-3.736 14.022 5.845 0 19.867 0h87.052c8.179 0 15.423 4.867 18.462 12.4l69.29 172.899c1.87 4.636 1.87 9.85 0 14.602l-43.584 108.583c-6.66 16.572-30.264 16.572-36.924 0L1.405 27.001Z"
    />
    <path
      fill="url(#c)"
      d="M169.547 26.422C164.873 13.558 174.454 0 188.242 0h75.835c8.413 0 15.891 5.215 18.695 12.98l62.981 172.899c1.519 4.287 1.519 9.039 0 13.442L307.894 303.27c-6.309 17.382-31.081 17.382-37.391 0L169.547 26.422Z"
    />
    <path
      fill="url(#d)"
      d="M321.331 27.001C316.19 14.022 325.771 0 339.793 0h87.052c8.179 0 15.424 4.867 18.462 12.4l69.29 172.899c1.87 4.636 1.87 9.85 0 14.602l-43.584 108.583c-6.66 16.572-30.263 16.572-36.924 0L321.331 27.001Z"
    />
  </g>
  <defs>
    <linearGradient
      id="b"
      x1="7.405"
      x2="260.485"
      y1="55.24"
      y2="164.437"
      gradientUnits="userSpaceOnUse"
    >
      <stop stop-color="#F213A4" />
      <stop offset="0.152" stop-color="#E011A7" />
      <stop offset="0.455" stop-color="#B20DAF" />
      <stop offset="0.879" stop-color="#6806BB" />
      <stop offset="1" stop-color="#5204BF" />
    </linearGradient>
    <linearGradient
      id="c"
      x1="175.093"
      x2="410.968"
      y1="54.447"
      y2="148.471"
      gradientUnits="userSpaceOnUse"
    >
      <stop stop-color="#F213A4" />
      <stop offset="0.152" stop-color="#E011A7" />
      <stop offset="0.455" stop-color="#B20DAF" />
      <stop offset="0.879" stop-color="#6806BB" />
      <stop offset="1" stop-color="#5204BF" />
    </linearGradient>
    <linearGradient
      id="d"
      x1="327.331"
      x2="580.411"
      y1="55.24"
      y2="164.437"
      gradientUnits="userSpaceOnUse"
    >
      <stop stop-color="#F213A4" />
      <stop offset="0.152" stop-color="#E011A7" />
      <stop offset="0.455" stop-color="#B20DAF" />
      <stop offset="0.879" stop-color="#6806BB" />
      <stop offset="1" stop-color="#5204BF" />
    </linearGradient>
    <clipPath id="a">
      <path fill="#fff" d="M0 0h516v321H0z" />
    </clipPath>
  </defs>
</svg>
